<svg xmlns="http://www.w3.org/2000/svg" viewBox="0 0 100 100">
  <rect width="100" height="100" rx="20" fill="#6C5CE7"/>
  <!-- Hat brim -->
  <ellipse cx="50" cy="39" rx="30" ry="5.5" fill="#2d3436"/>
  <!-- Hat top -->
  <path d="M31 39 Q32 23 50 21 Q68 23 69 39 Z" fill="#2d3436"/>
  <!-- Hat band -->
  <rect x="31" y="36.5" width="38" height="3" rx="1" fill="#636e72"/>
  <!-- Face -->
  <ellipse cx="50" cy="57" rx="19" ry="21" fill="#ffeaa7"/>
  <!-- Left eye -->
  <ellipse cx="43" cy="53" rx="3.5" ry="4" fill="white"/>
  <ellipse cx="43.5" cy="53.5" rx="2" ry="2.2" fill="#2d3436"/>
  <!-- Right eye -->
  <ellipse cx="57" cy="53" rx="3.5" ry="4" fill="white"/>
  <ellipse cx="57.5" cy="53.5" rx="2" ry="2.2" fill="#2d3436"/>
  <!-- Nose -->
  <ellipse cx="50" cy="61" rx="2" ry="1.5" fill="#fdcb6e"/>
  <!-- Mouth -->
  <path d="M44 67 Q50 72 56 67" stroke="#2d3436" stroke-width="1.2" fill="none" stroke-linecap="round"/>
  <!-- Coat -->
  <path d="M31 76 L43 86 L50 80 L57 86 L69 76 L69 100 L31 100 Z" fill="#2d3436"/>
  <!-- Magnifying glass -->
  <circle cx="66" cy="62" r="7" stroke="#b2bec3" stroke-width="2" fill="none"/>
  <line x1="71" y1="67" x2="78" y2="78" stroke="#b2bec3" stroke-width="2.5" stroke-linecap="round"/>
</svg>
